<?xml version="1.0" encoding="iso-8859-1"?>
<!-- Generator: Adobe Illustrator 19.0.0, SVG Export Plug-In . SVG Version: 6.00 Build 0)  -->
<svg version="1.1" id="Capa_1" xmlns="http://www.w3.org/2000/svg" xmlns:xlink="http://www.w3.org/1999/xlink" x="0px" y="0px"
	 viewBox="0 0 513.213 513.213" style="enable-background:new 0 0 513.213 513.213;" xml:space="preserve">
<path style="fill:#415A6B;" d="M370.779,97.213c0,0,0-2.133,0-7.467c0-4.267-1.067-10.667-3.2-18.133
	c-2.133-7.467-4.267-17.067-9.6-25.6c-5.333-8.533-12.8-13.867-22.4-14.933c-9.6-1.067-21.333,3.2-32,12.8
	c-10.667,8.533-20.267,22.4-26.667,36.267c-6.4,14.933-9.6,32-8.533,49.067c0,20.267,1.067,39.467,1.067,59.733
	c2.133,81.067,3.2,162.133,5.333,222.933c1.067,60.8,1.067,101.333,1.067,101.333h-59.733c0,0,0-40.533,1.067-101.333
	s3.2-141.867,5.333-222.933c0-20.267,1.067-40.533,1.067-60.8c1.067-22.4,7.467-44.8,17.067-64s23.467-36.267,40.533-48
	c17.067-11.733,38.4-19.2,58.667-14.933c10.667,2.133,19.2,6.4,26.667,12.8c7.467,5.333,11.733,11.733,14.933,18.133
	c6.4,13.867,8.533,25.6,9.6,35.2c1.067,9.6,1.067,17.067,1.067,22.4s0,7.467,0,7.467L370.779,97.213z"/>
<path style="fill:#F3705A;" d="M508.378,169.746c-26.667,82.133-112,119.467-126.933,128c-14.933-8.533-100.267-45.867-126.933-128
	c-7.467-25.6-12.8-93.867,56.533-101.333c69.333-8.533,57.6,50.133,57.6,50.133c0,8.533,6.4,12.8,12.8,11.733
	c6.4,1.067,12.8-3.2,12.8-11.733c0,0-11.733-58.667,57.6-50.133S515.845,144.146,508.378,169.746z"/>
<g>
	<path style="fill:#F05540;" d="M382.512,137.746c2.133,4.267,5.333,11.733,7.467,20.267c1.067,4.267,2.133,9.6,3.2,13.867
		c1.067,5.333,1.067,10.667,1.067,16c0,10.667-2.133,22.4-5.333,34.133c-3.2,11.733-6.4,22.4-9.6,34.133
		c-2.133,10.667-4.267,20.267-3.2,28.8c1.067,10.667,4.267,10.667,5.333,0c0-8.533,1.067-18.133,3.2-28.8
		c2.133-10.667,5.333-22.4,8.533-34.133c3.2-11.733,4.267-23.467,4.267-35.2c0-5.333-1.067-10.667-1.067-16
		c-1.067-5.333-2.133-9.6-3.2-13.867C387.845,148.413,385.712,142.013,382.512,137.746c-1.067-2.133-2.133-4.267-2.133-5.333v-1.067
		c0,0,0,0,0,1.067C380.378,133.48,381.445,134.546,382.512,137.746z"/>
	<path style="fill:#F05540;" d="M386.779,121.746c4.267,0,8.533,0,11.733,1.067c4.267,1.067,7.467,2.133,11.733,3.2
		c2.133,1.067,3.2,2.133,5.333,2.133c2.133,1.067,3.2,2.133,5.333,3.2l2.133,2.133l2.133,2.133l2.133,3.2l2.133,2.133l0,0
		c6.4,8.533,9.6,19.2,10.667,29.867c0,3.2,0,5.333,1.067,8.533c0,3.2,0,5.333,0,8.533c0,5.333-1.067,10.667-1.067,16
		c-1.067,5.333-2.133,10.667-3.2,16c-1.067,5.333-3.2,10.667-5.333,14.933c-1.067,2.133-2.133,5.333-3.2,7.467
		s-2.133,5.333-4.267,7.467c-1.067,2.133-3.2,4.267-4.267,6.4c-1.067,2.133-3.2,4.267-5.333,6.4c-8.533,10.667-12.8,6.4-4.267-3.2
		c2.133-2.133,3.2-4.267,5.333-6.4c1.067-2.133,3.2-4.267,4.267-6.4c1.067-2.133,3.2-4.267,4.267-6.4
		c1.067-2.133,2.133-4.267,3.2-7.467c2.133-4.267,4.267-9.6,5.333-14.933s3.2-9.6,4.267-14.933c1.067-5.333,1.067-10.667,2.133-16
		c0-2.133,0-5.333,0-7.467c0-2.133,0-5.333,0-7.467c-1.067-10.667-3.2-21.333-9.6-29.867l0,0l0,0l-1.067-2.133l-2.133-2.133
		l-2.133-2.133l-2.133-2.133c-2.133-1.067-3.2-2.133-5.333-3.2s-3.2-2.133-5.333-3.2c-3.2-2.133-7.467-3.2-11.733-4.267
		C394.245,122.813,391.045,121.746,386.779,121.746z"/>
	<path style="fill:#F05540;" d="M464.645,218.813c0,0,2.133-2.133,6.4-7.467c4.267-5.333,8.533-11.733,13.867-21.333
		c4.267-9.6,8.533-21.333,8.533-34.133c0-6.4,0-13.867-2.133-20.267c-1.067-6.4-4.267-13.867-7.467-19.2
		c-7.467-11.733-19.2-21.333-32-24.533c-6.4-2.133-12.8-2.133-19.2-2.133c-6.4,1.067-11.733,2.133-17.067,4.267
		c-9.6,4.267-17.067,10.667-20.267,14.933c-2.133,2.133-3.2,4.267-4.267,6.4c-1.067,1.067-1.067,2.133-1.067,2.133
		s0-1.067,1.067-2.133s2.133-3.2,4.267-6.4c2.133-2.133,4.267-5.333,7.467-8.533c3.2-3.2,7.467-5.333,12.8-7.467
		c5.333-2.133,10.667-4.267,17.067-4.267c6.4-1.067,12.8,0,19.2,1.067c12.8,3.2,25.6,12.8,34.133,24.533
		c4.267,6.4,6.4,12.8,8.533,20.267c2.133,7.467,2.133,13.867,2.133,21.333c0,13.867-4.267,26.667-8.533,36.267
		c-4.267,9.6-9.6,17.067-13.867,22.4c-4.267,5.333-6.4,7.467-6.4,7.467C459.312,233.746,455.045,230.546,464.645,218.813z"/>
	<path style="fill:#F05540;" d="M376.112,121.746c-4.267,0-8.533,1.067-11.733,2.133c-4.267,1.067-7.467,2.133-11.733,4.267
		c-2.133,1.067-3.2,2.133-5.333,3.2c-2.133,1.067-3.2,2.133-5.333,3.2l-2.133,2.133l-2.133,2.133l-2.133,2.133l-1.067,2.133l0,0l0,0
		c-6.4,8.533-8.533,19.2-9.6,29.867c0,2.133,0,5.333,0,7.467c0,2.133,0,5.333,0,7.467c0,5.333,1.067,10.667,2.133,16
		c1.067,5.333,2.133,10.667,4.267,14.933c2.133,5.333,3.2,9.6,5.333,14.933c1.067,2.133,2.133,4.267,3.2,7.467
		c1.067,2.133,2.133,4.267,4.267,6.4c1.067,2.133,3.2,4.267,4.267,6.4c1.067,2.133,3.2,4.267,5.333,6.4
		c10.667,16,10.667,20.267-4.267,3.2c-2.133-2.133-3.2-4.267-5.333-6.4c-1.067-2.133-3.2-4.267-4.267-6.4
		c-1.067-2.133-3.2-4.267-4.267-7.467c-1.067-2.133-2.133-5.333-3.2-7.467c-2.133-5.333-4.267-9.6-5.333-14.933
		c-1.067-5.333-2.133-10.667-3.2-16c-1.067-5.333-1.067-10.667-1.067-16c0-3.2,0-5.333,0-8.533c0-3.2,0-5.333,1.067-8.533
		c1.067-10.667,4.267-21.333,10.667-29.867l0,0l2.133-2.133l2.133-2.133l2.133-2.133l2.133-2.133c2.133-1.067,3.2-2.133,5.333-3.2
		c2.133-1.067,3.2-2.133,5.333-2.133c4.267-1.067,7.467-3.2,11.733-3.2C368.645,122.813,372.912,121.746,376.112,121.746z"/>
	<path style="fill:#F05540;" d="M372.912,117.48c0,0,0-1.067-1.067-2.133c-1.067-1.067-2.133-3.2-4.267-6.4
		c-4.267-5.333-10.667-10.667-20.267-14.933c-5.333-2.133-10.667-3.2-17.067-4.267c-6.4,0-12.8,0-19.2,2.133
		c-12.8,3.2-24.533,12.8-32,24.533c-3.2,6.4-6.4,12.8-7.467,19.2c-1.067,6.4-2.133,13.867-2.133,20.267s1.067,12.8,3.2,18.133
		c2.133,5.333,4.267,10.667,6.4,16c4.267,9.6,9.6,17.067,13.867,21.333c4.267,5.333,6.4,7.467,6.4,7.467
		c10.667,16,4.267,14.933-4.267,4.267c0,0-2.133-3.2-6.4-7.467c-4.267-5.333-8.533-12.8-13.867-22.4
		c-2.133-5.333-4.267-10.667-6.4-17.067c-1.067-6.4-2.133-12.8-3.2-19.2c0-6.4,1.067-13.867,2.133-21.333
		c2.133-7.467,4.267-13.867,8.533-20.267c7.467-12.8,20.267-21.333,34.133-24.533c6.4-2.133,13.867-2.133,19.2-1.067
		c6.4,1.067,11.733,2.133,17.067,4.267c5.333,2.133,9.6,5.333,12.8,7.467c3.2,3.2,6.4,5.333,7.467,8.533
		c2.133,2.133,3.2,4.267,4.267,6.4C371.845,116.413,372.912,117.48,372.912,117.48z"/>
</g>
<path style="fill:#415A6B;" d="M392.112,94.013c-5.333-1.067-8.533,0-11.733-6.4c-4.267-6.4-5.333-13.867-8.533-20.267
	c-1.067,16-2.133,32-3.2,49.067c0,1.067,0,3.2,0,3.2c0,7.467,6.4,12.8,12.8,12.8c7.467,0,12.8-6.4,12.8-12.8c0-1.067,0-2.133,0-3.2
	C394.245,110.013,393.178,100.413,392.112,94.013z"/>
<path style="fill:#4ABAA5;" d="M0.645,256.146c0,0,140.8-74.667,165.333,59.733C77.445,334.013,12.378,260.413,0.645,256.146z"/>
<path style="fill:#415A6B;" d="M244.912,394.813c-3.2,2.133-22.4,24.533-22.4,28.8c-12.8-59.733-96-136.533-177.067-162.133
	C128.645,281.746,220.379,316.946,244.912,394.813z"/>
<path style="fill:#4ABAA5;" d="M206.512,194.28c0-7.467-76.8,49.067-37.333,109.867C213.979,265.746,203.312,201.746,206.512,194.28
	z"/>
<path style="fill:#415A6B;" d="M188.379,330.813l-7.467,2.133c-9.6-11.733-32-32,11.733-110.933
	C164.912,271.08,170.245,318.013,188.379,330.813z"/>
<path style="fill:#4ABAA5;" d="M449.712,345.746c0,0-109.867-58.667-129.067,46.933
	C389.979,406.546,440.112,348.946,449.712,345.746z"/>
<path style="fill:#415A6B;" d="M256.645,451.346c3.2,2.133,8.533,28.8,9.6,30.933c-7.467-41.6,84.267-113.067,147.2-133.333
	C349.445,366.013,275.845,390.546,256.645,451.346z"/>
<path style="fill:#4ABAA5;" d="M287.578,296.68c0-5.333,59.733,38.4,28.8,86.4C282.245,353.213,290.779,303.08,287.578,296.68z"/>
<path style="fill:#415A6B;" d="M302.512,403.346l5.333,2.133c7.467-8.533,24.533-24.533-9.6-87.467
	C320.645,357.48,316.379,393.746,302.512,403.346z"/>
<g>
</g>
<g>
</g>
<g>
</g>
<g>
</g>
<g>
</g>
<g>
</g>
<g>
</g>
<g>
</g>
<g>
</g>
<g>
</g>
<g>
</g>
<g>
</g>
<g>
</g>
<g>
</g>
<g>
</g>
</svg>
